<?xml version="1.0" standalone="no"?>
<!DOCTYPE svg PUBLIC "-//W3C//DTD SVG 20010904//EN"
 "http://www.w3.org/TR/2001/REC-SVG-20010904/DTD/svg10.dtd">
<svg version="1.0" xmlns="http://www.w3.org/2000/svg"
 width="1080.000000pt" height="1080.000000pt" viewBox="0 0 1080.000000 1080.000000"
 preserveAspectRatio="xMidYMid meet">
<metadata>
Created by potrace 1.14, written by Peter Selinger 2001-2017
</metadata>
<g transform="translate(0.000000,1080.000000) scale(0.100000,-0.100000)"
fill="#000000" stroke="none">
<path d="M4757 10734 c-1 -1 -51 -4 -112 -8 -60 -3 -126 -8 -145 -11 -19 -2
-60 -7 -90 -9 -30 -3 -55 -6 -55 -6 0 -2 -32 -8 -85 -15 -39 -6 -155 -28 -215
-42 -11 -2 -31 -6 -45 -9 -31 -6 -199 -53 -220 -61 -8 -3 -21 -8 -27 -10 -7
-1 -19 -5 -25 -6 -7 -2 -22 -7 -33 -11 -74 -28 -96 -36 -103 -37 -28 -5 -329
-134 -372 -160 -8 -5 -39 -20 -68 -35 -30 -14 -82 -44 -118 -65 -35 -21 -66
-39 -68 -39 -5 0 -74 -44 -92 -59 -5 -4 -21 -14 -34 -21 -13 -7 -29 -17 -34
-22 -6 -4 -58 -43 -116 -85 -58 -41 -112 -82 -120 -90 -8 -7 -26 -23 -40 -34
-89 -72 -130 -110 -264 -245 -155 -156 -216 -221 -216 -230 0 -2 -14 -19 -30
-38 -17 -18 -48 -57 -70 -87 -22 -30 -47 -63 -56 -74 -9 -11 -32 -45 -52 -75
-21 -30 -40 -57 -43 -60 -16 -14 -221 -370 -225 -390 0 -3 -14 -34 -31 -70
-27 -56 -48 -104 -83 -185 -12 -29 -23 -58 -25 -71 -2 -6 -10 -27 -18 -45 -19
-43 -100 -299 -111 -354 -5 -24 -35 -161 -42 -190 -9 -39 -46 -280 -49 -320
-12 -149 -18 -276 -18 -375 0 -120 10 -350 17 -385 2 -11 7 -47 10 -80 10 -82
16 -125 23 -160 3 -16 7 -40 9 -52 1 -12 6 -36 10 -55 4 -18 8 -35 9 -38 1 -3
4 -18 8 -35 4 -16 9 -45 12 -64 3 -19 9 -39 13 -45 3 -6 8 -20 10 -31 24 -160
227 -660 339 -837 12 -21 23 -40 23 -42 0 -26 278 -423 362 -517 13 -14 45
-53 73 -85 27 -33 124 -134 214 -226 126 -127 182 -176 237 -208 39 -22 81
-42 93 -45 11 -2 24 -6 29 -8 28 -18 186 -26 267 -14 226 33 427 234 466 466
23 135 7 239 -58 371 -33 68 -61 99 -279 320 -134 135 -258 263 -276 285 -18
21 -40 46 -48 55 -9 8 -31 38 -50 65 -19 28 -37 52 -40 55 -14 14 -70 102 -70
110 0 6 -4 10 -8 10 -9 0 -132 240 -170 330 -40 96 -102 288 -102 318 0 10 -3
22 -7 26 -5 4 -8 11 -8 14 -1 7 -18 103 -20 112 -1 7 -17 101 -20 120 -10 66
-19 227 -18 330 0 110 3 162 18 312 4 40 26 164 40 226 20 89 27 116 47 182
19 64 23 75 28 95 2 6 15 39 30 75 15 36 28 70 30 75 7 27 25 66 76 168 31 62
64 127 72 145 9 17 20 32 24 32 4 0 8 5 8 11 0 21 148 235 222 321 13 15 34
42 48 59 56 73 270 278 375 360 138 107 185 140 185 132 0 -4 4 -3 8 3 22 33
253 160 425 234 177 75 397 142 562 169 33 6 71 13 85 15 14 3 49 7 78 8 30 1
55 5 57 9 5 7 441 3 495 -5 106 -14 161 -23 205 -33 17 -3 37 -7 45 -9 8 -1
24 -4 35 -7 11 -3 34 -8 50 -12 17 -4 41 -10 55 -15 14 -4 59 -18 100 -31 41
-13 79 -26 85 -31 5 -4 14 -8 21 -8 6 0 33 -10 60 -22 27 -12 51 -23 54 -23 3
0 16 -7 30 -15 14 -8 30 -15 36 -16 5 -1 52 -26 103 -55 51 -30 108 -63 127
-73 45 -26 210 -150 271 -204 26 -24 559 -553 1183 -1176 1112 -1110 1137
-1134 1210 -1169 91 -43 143 -54 236 -52 64 2 181 29 194 45 3 3 20 12 39 20
32 13 143 115 169 155 17 28 65 128 67 140 0 6 5 33 10 60 17 99 3 197 -42
294 -14 31 -29 58 -33 61 -4 3 -9 11 -11 18 -4 11 -1976 1989 -2127 2132 -68
65 -184 167 -222 195 -95 70 -145 110 -148 117 -2 4 -10 8 -18 8 -8 0 -14 5
-14 10 0 6 -6 10 -14 10 -7 0 -19 6 -25 14 -10 12 -110 76 -234 150 -54 32
-317 166 -317 161 0 -3 -20 7 -45 21 -25 13 -45 22 -45 19 0 -3 -17 3 -37 14
-38 18 -291 107 -348 122 -16 4 -55 14 -87 23 -31 8 -67 17 -80 20 -12 2 -54
11 -93 20 -109 24 -250 47 -385 61 -108 12 -464 26 -473 19z"/>
<path d="M4850 8458 c-30 -4 -68 -10 -85 -12 -85 -10 -254 -70 -365 -129 -172
-91 -326 -222 -433 -368 -26 -35 -52 -70 -57 -77 -21 -24 -107 -198 -128 -257
-18 -49 -59 -191 -61 -210 -1 -3 -1 -6 -2 -7 -13 -47 -18 -359 -5 -423 4 -22
9 -54 11 -72 11 -87 129 -391 156 -401 5 -2 9 -8 9 -13 0 -10 50 -90 61 -99 4
-3 23 -26 43 -53 20 -26 389 -400 821 -832 432 -432 785 -789 785 -795 0 -5
-6 -10 -12 -10 -24 0 -233 -96 -293 -135 -139 -89 -261 -201 -353 -326 -25
-35 -49 -66 -52 -69 -26 -25 -157 -324 -158 -363 0 -4 -3 -20 -6 -35 -4 -15
-9 -38 -11 -52 -33 -165 -22 -436 23 -560 3 -8 6 -17 6 -20 5 -26 34 -106 56
-155 14 -33 33 -75 41 -92 8 -18 17 -33 21 -33 5 0 8 -5 8 -11 0 -41 228 -305
325 -377 76 -56 116 -82 124 -82 5 0 11 -4 13 -8 3 -8 168 -92 180 -92 3 0 23
-8 44 -17 22 -9 44 -17 49 -19 6 -1 38 -9 73 -18 35 -9 76 -18 90 -20 15 -3
47 -8 72 -12 59 -10 269 -10 343 -1 32 4 84 14 116 22 31 8 66 16 77 18 10 2
28 7 39 11 107 40 131 50 139 58 6 4 18 8 28 8 10 0 18 3 18 8 0 4 17 15 38
25 51 24 136 79 202 132 50 40 186 183 215 226 16 24 32 46 35 49 7 6 80 130
80 135 0 2 14 33 30 68 17 36 30 71 30 79 0 8 4 18 9 23 11 13 47 164 56 235
11 80 12 235 4 299 -4 31 -10 70 -12 86 -2 17 -6 37 -9 45 -3 8 -14 47 -24 85
-26 103 -85 236 -146 328 -21 32 -38 61 -38 63 0 3 -6 11 -12 18 -7 7 -25 29
-40 47 -14 19 -584 591 -1265 1272 -824 824 -1251 1258 -1276 1297 -35 53 -72
136 -83 183 -2 9 -7 27 -10 40 -8 28 -7 181 0 227 30 177 153 345 319 433 206
110 471 89 653 -50 27 -20 169 -157 317 -305 148 -147 275 -268 283 -268 8 0
14 -4 14 -10 0 -5 28 -18 62 -28 121 -37 252 -10 339 70 48 44 94 118 105 166
12 52 11 147 -2 177 -7 17 -12 32 -12 35 4 29 -76 122 -284 331 -342 342 -393
386 -558 476 -54 29 -205 91 -245 100 -11 2 -31 6 -44 9 -14 3 -28 7 -32 9 -4
3 -24 7 -45 10 -22 3 -50 8 -64 12 -38 9 -278 10 -340 1z"/>
<path d="M7840 6643 c-93 -13 -162 -39 -255 -96 -36 -22 -174 -167 -158 -167
3 0 -1 -8 -9 -17 -26 -30 -62 -121 -74 -190 -27 -142 15 -328 100 -443 15 -19
133 -143 264 -275 250 -252 361 -380 437 -504 6 -9 17 -27 26 -41 41 -63 140
-250 132 -250 -3 0 -1 -6 5 -13 13 -16 97 -226 107 -267 1 -8 14 -58 28 -110
27 -100 38 -150 40 -187 0 -13 5 -23 10 -23 4 0 5 -4 2 -10 -3 -5 -1 -36 4
-67 14 -78 25 -263 22 -358 -1 -16 -1 -37 -1 -45 0 -8 -1 -49 -4 -90 -5 -68
-9 -109 -22 -195 -2 -16 -6 -43 -9 -60 -11 -80 -48 -232 -82 -339 -34 -111
-105 -289 -118 -298 -5 -4 -7 -8 -2 -8 10 0 -85 -181 -152 -290 -65 -107 -147
-224 -181 -260 -8 -9 -28 -33 -45 -55 -16 -22 -36 -47 -45 -56 -124 -131 -237
-241 -301 -294 -80 -66 -237 -179 -318 -229 -101 -62 -281 -156 -299 -156 -7
0 -12 -3 -12 -8 0 -5 -72 -37 -110 -47 -3 -1 -18 -7 -35 -14 -48 -19 -116 -42
-125 -43 -3 0 -12 -4 -21 -9 -9 -4 -27 -10 -40 -13 -13 -3 -48 -12 -76 -20
-29 -8 -53 -12 -53 -9 0 3 -6 1 -12 -5 -7 -5 -35 -13 -63 -17 -27 -5 -54 -9
-60 -11 -36 -8 -92 -17 -210 -31 -127 -14 -514 -6 -610 13 -11 2 -33 6 -50 9
-16 3 -54 10 -82 16 -29 6 -55 10 -58 10 -2 0 -19 5 -37 10 -18 6 -44 12 -57
15 -39 8 -230 75 -291 101 -135 59 -307 153 -391 213 -133 96 -169 124 -169
131 0 5 -4 9 -10 9 -16 0 -81 63 -1239 1220 -1018 1017 -1122 1118 -1181 1147
-89 44 -131 55 -214 58 -211 8 -402 -115 -483 -310 -27 -65 -36 -107 -38 -180
-2 -99 30 -208 86 -291 30 -43 2054 -2073 2186 -2191 41 -37 88 -79 102 -92
14 -13 51 -42 81 -65 30 -22 57 -43 60 -46 3 -3 30 -23 60 -45 30 -22 58 -44
62 -50 5 -6 8 -6 8 0 0 6 3 6 8 -1 33 -48 539 -324 667 -364 22 -7 45 -16 50
-20 9 -6 114 -47 140 -54 6 -1 51 -16 100 -32 50 -15 95 -29 100 -29 6 -1 35
-9 65 -18 59 -17 57 -17 205 -47 97 -20 114 -23 200 -35 22 -2 56 -7 75 -10
39 -6 127 -14 210 -20 83 -7 352 -7 460 -1 93 6 131 9 220 21 25 4 63 8 85 11
22 2 51 6 65 10 14 3 36 7 50 8 50 6 222 46 325 75 128 36 170 49 238 74 37
14 69 25 70 26 1 0 13 4 27 9 201 78 398 174 575 280 58 34 262 170 288 191 6
6 48 39 92 73 79 61 95 75 203 173 69 62 214 209 264 267 21 24 54 61 73 83
105 119 275 362 378 541 143 250 296 622 352 854 2 8 11 44 20 80 22 91 28
118 41 190 4 19 8 44 11 55 5 24 12 77 18 125 2 19 6 44 9 55 4 20 16 153 22
235 5 70 4 358 -1 430 -7 101 -13 171 -20 220 -3 25 -8 59 -10 75 -2 17 -4 30
-5 30 -1 0 -3 14 -5 30 -14 100 -39 225 -65 325 -29 107 -52 187 -59 205 -5
11 -16 45 -26 75 -18 59 -56 160 -86 227 -11 24 -19 45 -19 48 0 10 -130 270
-160 320 -17 28 -34 59 -39 70 -5 11 -34 58 -65 104 -31 47 -56 88 -56 92 0 4
-3 9 -7 11 -5 2 -21 23 -38 48 -16 25 -32 47 -35 50 -3 3 -28 34 -55 70 -64
82 -80 102 -135 163 -25 27 -54 61 -65 76 -39 51 -341 347 -381 372 -56 37
-122 66 -180 80 -50 12 -170 19 -214 12z"/>
</g>
</svg>
